<svg xmlns="http://www.w3.org/2000/svg" viewBox="0 0 128 128"><linearGradient id="a" gradientUnits="userSpaceOnUse" x1="70.252" y1="1237.476" x2="170.659" y2="1151.089" gradientTransform="matrix(.563 0 0 -.568 -29.215 707.817)"><stop offset="0" stop-color="#5A9FD4"/><stop offset="1" stop-color="#306998"/></linearGradient><path fill="url(#a)" d="M63.391 1.988c-4.222.02-8.252.379-11.8 1.007-10.45 1.846-12.346 5.71-12.346 12.837v9.411h24.693v3.137h-33.961c-7.176 0-13.46 4.313-15.426 12.521-2.268 9.405-2.368 15.275 0 25.096 1.755 7.311 5.947 12.519 13.124 12.519h8.491v-11.282c0-8.151 7.051-15.34 15.426-15.34h24.665c6.866 0 12.346-5.654 12.346-12.548v-23.513c0-6.693-5.646-11.72-12.346-12.837-4.244-.706-8.645-1.027-12.866-1.008zm-13.354 7.569c2.55 0 4.634 2.117 4.634 4.721 0 2.593-2.083 4.69-4.634 4.69-2.56 0-4.633-2.097-4.633-4.69-.001-2.604 2.073-4.721 4.633-4.721z"/><linearGradient id="b" gradientUnits="userSpaceOnUse" x1="209.474" y1="1098.811" x2="173.62" y2="1149.537" gradientTransform="matrix(.563 0 0 -.568 -29.215 707.817)"><stop offset="0" stop-color="#FFD43B"/><stop offset="1" stop-color="#FFE873"/></linearGradient><path fill="url(#b)" d="M91.682 28.38v10.966c0 8.5-7.208 15.655-15.426 15.655h-24.665c-6.756 0-12.346 5.783-12.346 12.549v23.515c0 6.691 5.818 10.628 12.346 12.547 7.816 2.297 15.312 2.713 24.665 0 6.216-1.801 12.346-5.423 12.346-12.547v-9.412h-24.664v-3.138h37.012c7.176 0 9.852-5.005 12.348-12.519 2.578-7.735 2.467-15.174 0-25.096-1.774-7.145-5.161-12.521-12.348-12.521h-9.268zm-13.873 59.547c2.561 0 4.634 2.097 4.634 4.692 0 2.602-2.074 4.719-4.634 4.719-2.55 0-4.633-2.117-4.633-4.719 0-2.595 2.083-4.692 4.633-4.692z"/><radialGradient id="c" cx="1825.678" cy="444.45" r="26.743" gradientTransform="matrix(0 -.24 -1.055 0 532.979 557.576)" gradientUnits="userSpaceOnUse"><stop offset="0" stop-color="#B8B8B8" stop-opacity=".498"/><stop offset="1" stop-color="#7F7F7F" stop-opacity="0"/></radialGradient><path opacity=".444" fill="url(#c)" enable-background="new" d="M97.309 119.597c0 3.543-14.816 6.416-33.091 6.416-18.276 0-33.092-2.873-33.092-6.416 0-3.544 14.815-6.417 33.092-6.417 18.275 0 33.091 2.872 33.091 6.417z"/><path
  fill="#515151"
  d="M34.911 112.049c0-3.757-1.072-5.686-3.214-5.791-.853-.041-1.685.095-2.495.409-.646.231-1.082.461-1.311.692v8.968c1.371.86 2.588 1.26 3.649 1.197 2.247-.148 3.371-1.971 3.371-5.475zm2.643.157c0 1.909-.447 3.493-1.348 4.753-1.003 1.427-2.394 2.16-4.172 2.201-1.34.043-2.721-.378-4.142-1.258v8.151l-2.298-.82v-18.093c.377-.462.862-.859 1.451-1.196 1.368-.798 3.031-1.207 4.987-1.228l.033.032c1.788-.022 3.166.712 4.134 2.201.902 1.366 1.355 3.117 1.355 5.257z"/><path
  fill="#515151"
  d="M51.603 117.555c0 2.56-.257 4.333-.77 5.318-.516.986-1.497 1.773-2.945 2.359-1.174.463-2.444.714-3.808.757l-.38-1.448c1.386-.188 2.362-.378 2.928-.566 1.114-.377 1.878-.955 2.298-1.73.337-.631.503-1.835.503-3.618v-.599c-1.571.714-3.219 1.068-4.941 1.068-1.132 0-2.13-.354-2.99-1.068-.966-.777-1.449-1.764-1.449-2.958v-9.566l2.299-.787v9.63c0 1.028.332 1.82.996 2.376s1.524.822 2.578.803c1.054-.022 2.183-.431 3.382-1.228v-11.234h2.299v12.491z"/><path
  fill="#515151"
  d="M60.576 119.034c-.274.022-.525.032-.757.032-1.3 0-2.314-.309-3.038-.93-.722-.622-1.084-1.479-1.084-2.573v-9.054h-1.574v-1.446h1.574v-3.84l2.296-.817v4.657h2.583v1.446h-2.583v8.991c0 .862.231 1.474.694 1.83.397.295 1.029.463 1.889.506v1.198z"/><path
  fill="#515151"
  d="M74.493 118.845h-2.298v-8.873c0-.902-.211-1.68-.631-2.329-.485-.734-1.159-1.102-2.024-1.102-1.054 0-2.372.556-3.954 1.668v10.636h-2.298v-21.208l2.298-.725v9.659c1.469-1.068 3.073-1.604 4.816-1.604 1.218 0 2.203.41 2.958 1.228.757.817 1.134 1.836 1.134 3.053v9.597h-.001z"/><path
  fill="#515151"
  d="M86.711 111.688c0-1.444-.274-2.636-.82-3.579-.649-1.149-1.657-1.756-3.021-1.818-2.52.146-3.778 1.951-3.778 5.412 0 1.587.262 2.912.79 3.976.674 1.356 1.685 2.024 3.033 2.002 2.531-.02 3.796-2.017 3.796-5.993zm2.518.015c0 2.055-.526 3.765-1.575 5.131-1.154 1.528-2.749 2.296-4.783 2.296-2.017 0-3.589-.768-4.723-2.296-1.028-1.366-1.542-3.076-1.542-5.131 0-1.932.556-3.556 1.668-4.879 1.174-1.403 2.718-2.107 4.627-2.107 1.909 0 3.463.704 4.66 2.107 1.111 1.323 1.668 2.947 1.668 4.879z"/><path
  fill="#515151"
  d="M102.407 118.845h-2.299v-9.376c0-1.028-.31-1.831-.928-2.409-.619-.576-1.443-.855-2.472-.833-1.091.021-2.13.378-3.116 1.069v11.549h-2.299v-11.833c1.323-.963 2.54-1.592 3.652-1.886 1.049-.274 1.974-.41 2.771-.41.545 0 1.059.053 1.542.158.903.209 1.637.596 2.203 1.164.631.629.946 1.384.946 2.267v10.54z"/></svg>
